<?xml version="1.0" encoding="UTF-8"?>
<svg id="Layer_2" data-name="Layer 2" xmlns="http://www.w3.org/2000/svg" viewBox="0 0 67.48 52.48">
  <defs>
    <style>
      .cls-1 {
        fill: #c9b56f;
        stroke-width: 0px;
      }
    </style>
  </defs>
  <g id="Layer_1-2" data-name="Layer 1">
    <g>
      <path class="cls-1" d="M33.74,13.3c-.32,0-.63.1-.9.32L11.25,31.4s0,19.2,0,19.2c0,1.07.9,1.92,1.97,1.87h3.79s0,0,0,0h10.94l-3.67-7.18,10.27-6.32-5.94-11.76,14.61,13.5-10.27,6.32,3.94,5.45h15.94s1.44,0,1.44,0h.09c1.04,0,1.87-.84,1.87-1.87v-19.21l-21.59-17.78c-.26-.21-.58-.32-.9-.32Z"/>
      <path class="cls-1" d="M66.96,25.7h0l-9.79-8.07V1.41c0-.78-.63-1.41-1.41-1.41h-6.56c-.78,0-1.41.63-1.41,1.41v8.51L37.31,1.28c-2.08-1.71-5.07-1.71-7.15,0L.51,25.7c-.6.49-.68,1.38-.19,1.98l2.99,3.63c.49.6,1.38.69,1.98.19,0,0,27.56-22.7,27.56-22.7.52-.42,1.27-.42,1.79,0l27.56,22.7c.6.49,1.48.41,1.98-.19,0,0,2.99-3.63,2.99-3.63.49-.6.41-1.49-.2-1.98Z"/>
    </g>
  </g>
</svg>