<?xml version="1.0" encoding="UTF-8"?>
<svg id="Layer_1" data-name="Layer 1" xmlns="http://www.w3.org/2000/svg" viewBox="0 0 103.52 105.61">
  <defs>
    <style>
      .cls-1 {
        fill: #d1b256;
      }

      .cls-2 {
        fill: #fff;
      }
    </style>
  </defs>
  <path class="cls-1" d="M46.59,104.95c-5.07-1.76-12.44-2.86-16.91-5.87-1.07-2.82-2.19-1.88-3.25-4.61-.38-1.02-1.38.5-2.05-.02.4-4.8-.75-1.21-5.81-3.07-4.04-3.07-11.29-9.11-11.32-15.13-2.64-2.2-2.16-.76-2.04-3.75-.48-2.73-2.88-5.51-2.15-8.33-.85-1.12-.63-4.44-1.09-6.74-1.1-.24-1.41-.18-1.44-1.42-1.7-4.47,1.24-8.75.24-13.08-1.47-6.86,1.78-15.44,5.85-20.75,1.9-2.09,2.09-5.34,4.46-7.49-.72-1.25.05-.55,1.03-1.29,7.43-5.21,13.74-4.93,20.82-10.53,1.95.14,4-.67,5.69-1.57,1.64-.48,6.23.82,8.46-.99,4.6,1.6,5.12-1.31,10.48.06,2.2.46,4.15.47,5.98,1.76.61.55,3.71.38,3.47,1.77,5.64,4.62,2.78.1,7.33,2.84,2.21,1.46,1.31,2.63,2.23,3.16,1.72.31,2.53-.46,2.41,2.09,1.65-.24,3.61-.24,4.29,1.49,2.23.51,4.74,2.79,6.94,2.86,5.45,5.69,10.79,15.6,9.38,23.82.91,3.44.43,5.43,2.01,9.11.49,1.67-1.2,5.43,1.31,7.23.82,4.19.77,8.69.02,13.01-.43,1.1,1.36,2.84-1.77,6.91-.44,1.62-.41,4.25-2.56,4.68-4.01,8.09-12,15.33-20.54,18.91-11.33-.28-19.47,7.93-31.48,4.94ZM53,7.92c1.66.17,3.68.35,4.49.41l-.05-.76c-5.92-1.38-.98-.52-5.75-.07l1.31.43ZM26.69,11.33c8.74,2.48,15.61-4.94,7.9-2.34-1.49,1.77-6.89-.27-7.9,2.34ZM60.51,10.67c2.03,1.72,4.07.96,4.53-1.69l-1.4.14c-.76.1-3.97-1.28-4.08.26l.94,1.29ZM78.15,15.32c-1.72-1.73-4.29-2.23-5.9-3.14-3.5,9.73-.32,5.51,5.9,3.14ZM35.44,15.19c-2.13-1.95-3.55,5.15-1.92,5.3,2.62.22,1.98-3.28,1.92-5.3ZM20.53,18.09c4.57-5.69-3.58-.48-1.33,1.55,0,0,1.33-1.55,1.33-1.55ZM39.49,19.05c1.03-1.18.34-4.49-1.35-3.59-1.54,1.44-1.5,6.38,1.35,3.59ZM30.54,15.99c-1.91-1.93-3.07,2.91-1.13,2.99,1.06-.12,1.29-2.46,1.13-2.99ZM54.56,17.6c4.17-1.39-7.16-3.23-4.04-.43,0,0,4.04.43,4.04.43ZM45.23,17.04c-.74-.03-3.35-.46-2.77,1.01.32.38,3.17.09,2.77-1.01ZM49.68,19.05c-1.52-1.68-2.94.05-2.42,1.66l2.42-1.66ZM58.34,21.56c.72-.99-5.05-3.02-6.05-2.67.45,2.6,5.12,1.91,6.05,2.67ZM43.11,19.09c-2.04-1.15-4.56,4.35-2.56,4.46.43-.68,3.92-4.26,2.56-4.46ZM72.09,32.63c-.13-.32-.89-5.04-1.7-10.48,0,0-.3-2.02-5.58-2.58-4.52,4.05,2.93,15.14,7.48,14.07.32-.54-.47-.47-.77-.48l.56-.53ZM44.1,23.91c1.06-.45,2.86-2.77,1.21-3.43-.99.23-2.78,3.01-1.21,3.43ZM22.83,23.07c2.47-2.96-4.14-3.27-3.57-.63.23.35,2.66,2.03,3.57.63ZM27.39,21.15c-3.11-2.42-2.14,2.49-.06,2.35.76-.33.34-1.96.06-2.35ZM16.07,23.73c2.97-2.99.43-2.8-1.07-.05-1.53,2.04-1.32,3.35,1.07.05ZM47.36,23.2c.61.93,2.96.96,5.22.07h0c.99-2.36-3.96-.64-4.83-.69l-.39.63ZM59.33,24.49c-.91-1.22-6.87-4.15-4.27-.28.84-.2,4.44.63,4.27.28ZM72.66,24.64c-1.33-1.09-1.85-1.18.15-1.78-1.96-1.77-3.33,3.13-.15,1.78ZM74.85,24.02c1.17.28,1.93-.7,2.5-1.47-1.03.06-3.97.29-2.5,1.47ZM23.15,29.12c1.29-1.21-3.13-4.49-4.33-4.84l-.42,4.59c2.37-2.71,3.05.64,4.75.25ZM28.16,33.79c2.93,3.15,11.34,1.36,13.58-1.34,1.13-1.04.81-2.84-.68-3.46.77-1.63-1.23-4.91-2.62-2.66,1.54,1.48-.82,1.48-.65-.03,1.56-2.57-.04-2.03-1.94-.87-.18-1.52-.65-.69-1.46.04-.06,1.88,3.34-.72,2.63,1.49-4.6-.24-7.95.61-10.93,3.97-.5,1.26-.51,1.12-1.74.74-.81,1.62.92.35,1.4,1.11.7,1.37,1.49.32,2.41,1.01ZM75.35,26.45c.86,1.05,4.25.47,3.5-.98-1.22.51-3.15-.49-3.5.98ZM54.99,27.81c.6-4.57-9.19-.6-5.34,1.31,2.25.13,5.43.67,5.34-1.31ZM59.62,28.12c.55-2.08-1.95-2.19-3.39-2.24.12,2.24,1.69,2.3,3.39,2.24ZM83.03,29.39c-.55-1.06-5.73-.63-6.84-.34-.41,1.66,6.43.85,6.84.34ZM59.41,31.89c.65-1.47-1.48-2.64-2.7-1.89-1.45,1.65,1.33,3.8,2.7,1.89ZM62.4,30.91c-.31-.56-1.54-1.17-2.1-.88-.85,1.18,1.65,2.31,2.1.88ZM9.58,34.16c.99-.39-.28-.94,1.07-2.26,1.05-2.45-4.37,1.36-1.07,2.26ZM15.49,34.61c3.19-1.75,8.68-4.11,1.36-3.44.91,1.66-1.84,2.12-1.36,3.44ZM54.1,33.67c1.79-4.64-6.48-2.21-1.84.72.68.2.48-.9,1.84-.72ZM49.74,34.28c.47-3.12-3.07-4.16-3.5-1.2,0,0,3.5,1.2,3.5,1.2ZM84.32,32.6c-1.47.54-10.04-2.18-6.73.78,4.84.88,10.19,8.76,6.73-.78ZM54.28,39.88c2.54,2.99,9.53-5.63,10.24-5.95-2.32-1.93-11.57,1.67-10.24,5.95ZM92.02,37.64c.74-1.55-2.66-4.35-3.85-3.2-1.31,1.57.81,3,.62,4.41.91-.14,2.71-.12,3.23-1.21ZM6.98,39.81c.16-.91.17-4.82.02-8.67l-.91,5.82c-.41,1.13-1.49,3.42.38,3.69l.5-.84ZM51.13,36.76c-4.99-3.35-10.27-2.35-3.61,3.01,1.08,2.22,4.43-1.16,3.61-3.01ZM20.58,35.61c-.94-.91-2.72-.38-3.54.65,1.04.5,3.02.6,3.54-.65ZM80.02,41.01c1.57,1.65.81-.73-1.69-5.29l-3.08.1c1.56,1.57,4.01,4.81,6.27,3.69l-1.5,1.49ZM46.62,41.31c-3.94-6.01-7.82-5.02-4.72,2.13.76-.74,5.53-.43,4.72-2.13ZM17.16,38.58c-1.97-2.78-3.34.4-1.68,2.19,0,0,1.68-2.19,1.68-2.19ZM96.89,42.44c.44,1.03.14-2.12-.67-7l-1.52,3.29s.65,3.55.65,3.55l1.53.16ZM17.7,43.42c1.14-1.68,2.43-3.49,3.51-4.58,1.01-2.54-4.7.84-3.51,4.58ZM40.14,44.56c.41-.73-1.48-5.7-2.44-6.77-2.74,2.46-2.38,10.18,2.44,6.77ZM69.22,51.51c2.89-3.21,6.1-7.32,7.13-9.14l-4.4-3.92c-2.54-.22-.88,6.76-1.91,8.92l-.83,4.14ZM81.29,44.87c-.48-.83-1.85-1.47-3.03-1.41l.24-.83c2.81.02-2.49-4.31-3.82-4.15,1.77,3.64,1.4,12.2,6.61,6.38h0ZM30.15,43.9l.95-4.64c-2.47-.79-3.6,3.72-.95,4.64ZM34.37,45.38c-.11-1.68.69-4.98-.33-6.32-2.27.07-3.98,9.93.33,6.32ZM10.87,41.66c.41-1.58-2.65-2.09-2.11-.24.8.57,1.52,1.71,2.11.24ZM23.77,45.35c.5-1.08,4.3-4.04,1.79-4.92-.53.56-3.66,6.59-1.79,4.92ZM20.09,44.91l1.99-4.37c-.73.2-3.77,4.25-1.99,4.37ZM38.94,79.86c10.98-9.72,6.33-.77-1.29,2.43,5.25,3.1.58,1.69,2.86,3.85,0,0,.28-1.33.28-1.33,2.66,1.39,3.7-4.21,4.44-6.16,5.36-4.02-.94,6.09-1.79,7.61,12.23,7.29.13,7.65,19.47,4.66,5.41-.44,5.22-4.05,4.43-8.3-.79,1.18-1.89,2.33-3.39,2.67-1.9.66-12.63-10.11-7.01-8.04,7.94,10.98,13.46,5.79.85-1.08-1.85-5.68,5.75,3.25,8.52,4.24,3.06-5.88-5.33-5.12-7.59-7.7,1.51-3.16,9.79,5.64,7.45-.35-1.35-.29-9.01-1.9-5.3-3.76,2.67,1.02,6.16,4.55,6.37-1.15,0,0-5.94-.04-5.94-.04-3.65-4.99,7.64,2.71,7.3-5.35-2.5.13-11.79,3.91-8.15-1.72,2.49,2.12,9.93.86,10.51-2.86-1.8-7.83-10.89,6.74-11.94.9-.81-1.63,13.21-4.52,8.45-6.03.02-.47.38-1.45.06-1.84-4.87-5.11-7.88,9.95-10.29,4.61.63-.97,2.17-2.65,3.1-3.34,5.3-3.52,1.44-3.28-2.7-3.37.97,1.28-.53,5.15-1.81,6.31-3.33.03.38-4.34.8-5.51,1.08-1.9-2.35-4.52-3.67-6.45.83,3.26.33,7.9-.09,10.89-3.87-.84.39-8.27-1.05-11.25.04-2.28-4.08.9-4.74,1.46.43,3.18,2.63,6.67,2.83,9.61-3.69,2.31-2.69-6.73-4.3-8.83-9.95.79-.21,6.06,1.3,9.8-2.27,2.18-5.24-5.01-7.05-6.18-1.45-2.37-1.87.79-2.96-.65-.48-.13-.2-.58-.16-.89-2.94-.34-2.14.6-4.59.97,1.26,1.95,1.27,3.51,3.24.97,0,0,1.47-.13,1.47-.13-.6,2.9,4.42,4.45,6.44,5.95,5.12,7.1-7.3-3.48-8.57-4.18-2.54,4.71,2.84,5.82,7.03,7.21,3.61.15,3.12,4.69-.23,2.1-1.28-1.14-4.98-2.36-7.12-3.79-.47,9.37,9,2.91,8.08,7.22-.6,1.77.73,1.74.16,2.89-.8.26-3.17-3.55-3.76-.36.44.16,2.52.7,2.87.71-.52,1.35-4.08-.82-5.18-.91-2.76-2.86,6.89-.83,4.31-2.48-.83.02-4.32-.55-4.99-.6.72,1.64-1.49,6.66-1.44,2.8,0,0-.55-.26-.55-.26l-.32,1.5c2.01.94.02,1.95-.86-.15,1.56-.37-1.5-1.27.07-1.74.44.67.42.39.82,0,.79-2.56-.72-.22-1.67-.58-1.11.27-.42,2.07-1.52,2.3-.3-1.07.02-2.69-1.65-1.85-1.52-1.86-.42.96-.52,1.64l.7.41c-2.15.64-.34.37-.94,1.49,1.36.44,1.32-.11,1.4,1.81,1.48-1.37.94-1.17,2.87-.13.17-.83,1.04-.55,1.25-.88.53-.39.65-2.22,1.3-.72-1.82,4.3,9.21-2.54,9.06,1.74-2.2,1.51-5.69.42-9.58.71-.38,2.21-.83,2.03-2.55,3.05-1.72.9-2.13,3.06-3.78,4.07,4.67,2.53,4.48,1.59,2.95-2.82,3.98,1.1,5.04-2.37,5.35-.21,2.76-.08,5.99-3.3,8.47-2.02-.84,4.68-11.08,1.17-11.5,5.41,1.46,3.21,3.13,3.93,5.66,2.02ZM13.13,53.14c-.45.74-.4.82-.14.78,4-.33-1.61-8.41-.06-11.6-3.97,3.61,1.6,6.63.2,10.82ZM15.8,44.48c-3.02-4.73-.28,4.75.08,6.35.82-2.88-.19-3.29-.08-6.35ZM6.63,46.44c.67.17,1.31-1.86,1.42-4.51l-1.34,1.59c.42,2.17-.71,1.41-.29,2.42l.21.5ZM29.65,46.17c.15-1.09-.73-2.1-1.52-2.96-1.64,1.32-.82,4.21,1.52,2.96ZM18.62,49.34c.52-1.74.79-3.01-1.02-4.06.11,1.58-.25,6.62,1.02,4.06ZM92.15,53.73c-.25-3.18-.9-5.92-1.45-6.09l-.7-.43c-.16-.1.02-1.82-.93-1.62-1.69.56,1.1,8.4.4,10.9l2.68-2.76ZM86.26,57.18c1.52-3.62,1.83-14.99-3.29-8.75-.4,1.49,2.89,7.26,3.29,8.75ZM23.56,52.64c2.74-2.36,2.67-3.85-.16-3.3l-1.74,3.9c-2.23-1.47,0-4.04.67-5.82-2.23-2.17-1.5,3.01-2.18,4.05-1.92-.39-1.71,2.05-.21,2.24.47-.48,1.08.22,1.48.47l2.13-1.55ZM9.77,51.87c-.32-.41-.7-4.55-1.67-3.01-.44,2.67,5.21,9.61,1.67,3.01ZM28.23,56.11c1.95-.11,3.32-1.86,3.99-3.53,1.31-10.67-15.52,7.72-3.99,3.53ZM95.04,49.71c-1.61-2.39-2.23.33-1.63,1.88,1.02-.38,1.49-1.1,1.63-1.88ZM80.97,50.32c-8.66-4.63-.69,5.93,2.37,7.83.99-2.26-1.31-5.74-2.37-7.83ZM67.94,50.05c1.82,2.78,5.06,2.92,7.19.31l.7-1.18s-3.4,1.82-3.4,1.82l-4.5-.95ZM82.01,63.09c-.25-2.93-3.64-9.2-7.36-9.61-6.05,5.83,3.62,7.53,7.36,9.61ZM94.12,55.04c-1.56-4.61-1.81,2.8-2.49,3.4,1.32-.79,2.34-1.8,2.49-3.4ZM12.56,59.9c1.24,3.33,4.92,2.43,8.17-2.01,0,0,2.92-3.99-4.65-3.06-.09,2.61-1.79.11-3.19.47-.61,2.22-.54,1.85,0,4.05l-.33.54ZM5.86,58.65l1.65-.62c-1.53-2.1-2.88-1.94-1.65.62ZM30.67,60.94c-2.18,2.19-.08-1.73-.1-2.22,1.56,2.54,5.19,2.27,1.82-1.43-1.85.06-7.41.74-7.52,3.12,1.46,2.4,11.04,1.82,5.79.54ZM95.59,59.57c.04-2.45-1.55.3-2.06,1.18.48.42,1.76-.24,2.06-1.18ZM90.6,63.6c-.19-.38-2.26-2.05-4.61-3.69l3.16,1.56c-.24-.47-.59-1.65-.2-1.98-1.38-.41-1.81,1.84-2.41-.56-1.56,1.33-3.91,2.54-3.32,5.03.73-.65,2.32-.73,3.23-.55,2.64-1.81,3.36,2.59,3.93.72l.22-.51ZM23.16,63.93c.14-1.58.77-3.36.27-4.92-1.18,1-.32,3.72-.27,4.92ZM10.72,61.97c-.41-3.82-1.32.9-.95,2.36,1.48-.31.78-.43.95-2.36ZM8.82,62.4c-.95-1.3-2.62-1.07-3.81-1.6-.72,3.25,1.63,4.41,3.81,1.6ZM72.94,67.06c4.42-.58,8.33-1.65,8.71-2.37l-.16-.5c-1.52,1.34-6.81-4.66-8.24-2.56l-.31,5.43ZM72.16,63.66c1.98-.96-.21-3.18-1.79-1.84-.83,1.04.95,1.87,1.79,1.84ZM96.39,63.53c.66-.34.93-1.29.4-1.67-1.44.46-3.15,3.04-.4,1.67ZM91.9,75.47c.51.22,1.52-.1,2.26-.71l-1.04-2.12c.75.28,2.26,1.15,2.04-.36-1.16-.8-3.38.18-1.34-1.64-.7-1.79-1.22-.16-1.38.81-2.96,1.19-1.93.66-1.55-1.86-.43-3.81-5.73-8.79-8.43-3.43-1.78,1.76.15,3.54-.29,5.76.86,3.26.47,9.2,5.61,6.78,1.41,1.76,2.04-2.65,2.87-4.66.96,1.6.81.75,1.89-.01l-.63,1.45ZM72.77,66.11c-.76-1.26-4.07-1.78-3.69.05,0,0,3.69-.05,3.69-.05ZM7.54,71.32c.36-2.39,1.92-4.18,2.92-5.84-5.17-1.27-7.16,2.88-2.92,5.84ZM68.72,68.75c2.42.24,7.84-.85,12.05-2.42l-7.21-.47c.18,3.07-5.56-.16-5.13,2.32l.29.56ZM28.42,72.58c-3.02-2.02-4.55-3.93-6.62-6.4-1.12,3.37,8.38,14.72,6.62,6.4ZM25.48,76.74c-1.77-2.83-3.82-4.4-5.02-7.69-.99,2.21,1.42,9.41,5.02,7.69ZM10.93,71.59l.93-1.97c-1.75-.81-3.07,2.93-.93,1.97ZM77.79,70.58c-1.19.32-5.76-.52-5.4,1.81.89.42,6.22.09,5.4-1.81ZM97.67,71.18c-1.35-.07-2.8,2.35-.58,1.7.6-.62,1.14-1.77.58-1.7ZM20.64,76.26c-2.44-5.26-3.19-4.87-1.84,0,.42.17,1.4.07,1.84,0ZM10.74,75.21l-.11-2.05c-1.12-2.53-1.77,3.78.11,2.05ZM16.25,76.93c.76.06.78-1.75.04-4.02l-.18.28c-.5,1.39.3.75.18,3.11l-.03.62ZM69.03,76.7c1.8-.95,6.24-1.33,9.87-.83l-.73-2.17c-2.54.42-8.5-.51-10.16,1.34l1.02,1.66ZM69.27,81.34c3.56,1.41,14.07-6.37,7.39-4.02-3.61,1.57-5.72-.61-7.39,4.02ZM89.71,88.48c.24.52,4.06-1.74,8.48-5.01,0,0,1.04-.77-7.29-3.03-2.16-.61.89-1.35-.21-2.24-3.06,2.27,1.65,5.35.95,8.01-.54,1.14-1.76.79-3.47,1.93l1.54.34ZM26.22,82.79c1.73,1.34,3.2.5,3.27-1.86l-.04-1.04c-.99-.94-4.26-2.13-3.62.43l.4,2.47ZM71.89,84.87c3.38-1.08,6.41-2.9,8.46-5.69-2.8,1.93-15.86,5.17-8.46,5.69ZM88.62,83.11c-.48-.62-.39-1.93.2-2.92l.35-.62c-1.52.23-2.44,3.09-1.79,4.04l1.23-.49ZM25.46,83.82c-.93-1.49-.76-5.04-2.91-2.63.58,1.14,1.15,3.38,2.91,2.63ZM33.67,86.58c4.35-.99.87-7-2.47-5.64-.18,1.78-.28,5.93,2.47,5.64ZM82.58,87.14c1.93-6.77,4.99-4.39,3.7-6.59-.32-.04-1.1.19-.92.43.21.18.79.37.31.67-2.94-1.78-5.56,10.02-3.09,5.48ZM71.4,89.6c3.91.01,6.27-4.36,8.64-6.96-1.52.9-14.1,5.66-8.64,6.96ZM89.14,87.17c1.34-6.65-2.59-1.72-3.23,1.58.89.46,1.78-1.41,3.23-1.58ZM77.9,89.58c2.07.02,3.07-3.38,2.96-5.15-1.08,2.28-8.62,5.82-2.96,5.15ZM30.91,93.19c6.7.55-.91-9-4.97-5.48-4.94,2.18,7.74,8.64,4.97,5.48ZM44.89,89c-1.24-1.19-2.4.62-2.92-.8,0,0-.95.68-.95.68.13.34,5.95,2.54,3.87.13ZM41.66,92.31c2.34-.73,5.06-1.25,6.06-1.16l-.86-1.18c-1.12.14-2.5,1.6-3.44.61l-1.76,1.74ZM80.28,90.94c-1.14-1.63-3.36,2.98-4.06,3.38,1.82-.38,3.05-2.03,4.06-3.38ZM75.25,92.48l1.33-1.32c-.71-2.19-3.65,2.59-1.33,1.32ZM71.36,93.53c.93-.73,2.36-2.54,1.64-2.51-.99.07-4.4,2.33-1.64,2.51ZM67.14,93.04c1.78-3.93-4.16-.42-4.42,1.16.78,2.6,2.58.22,4.42-1.16ZM46.06,95.09c5.1-4.37-4.82-1.51-7.22-1.78.84,1.63,5.62,3.22,7.22,1.78ZM27.62,95.37c.78-.27,1.35-1.91.23-2.14-1.19.14-1.24,1.58-.23,2.14ZM58.86,96.12c2.15-3.26-4.21-3.78-5.66-2.28,2.76,3.86,2.3,1.08,5.66,2.28ZM53.86,97.24l-2.47-1.97c-3.96-2.45-2.42,5.18,2.47,1.97ZM41.65,100.63c-2.67-1.48-3.17-1.4-5.09-3.6-4.4-6.55-1.75,5.85,5.09,3.6ZM42.42,98.09c.73-1.59-1.44-1.7-2.41-1.88-1,.99,2.01,1.49,2.41,1.88ZM60.45,98.44c1.11.94,3.68,2.28,5.71,2.98l.77-1.52c1.98.35,8.99-2.88,3.45-3.01-3.83-1.15-8.3,2.42-11.7.98-.2.33-.14,1.17-.38,1.37-.65.14-1.71.32-1.17,1.18-.11.74.15.75.68.42l2.63-2.4ZM41.88,98.99l-3.51-1.74c.12.94,2.7,3.07,3.51,1.74ZM48.23,99.01c-1.18-.46-3.3-2.24-3.97-.25,1.44.3,2.55.47,3.97.25ZM44.98,101.46c2.88-.22-.71-1.11-1.28-1.27-1.3.58-.76,1.09,1.28,1.27Z"/>
  <path class="cls-2" d="M38.94,79.86c-2.52,1.89-4.2,1.19-5.66-2.02.41-4.23,10.65-.73,11.49-5.41-2.47-1.28-5.72,1.95-8.47,2.02-.33-2.16-1.34,1.3-5.35.21,1.59,4.38,1.65,5.39-2.96,2.82,1.66-1.01,2.05-3.16,3.78-4.07,1.71-1.01,2.17-.85,2.55-3.05,4.07.54,5.35-.84,9.2.32.46-1.91.75-2.57-1.94-2.41-1.69-.04-7.24,2.38-7.05.15.59-.37.11-.8-.12-1.17-.39,1.25-1.43,1.32-2.12,2.26-1.86-1.03-1.45-1.21-2.87.13-.07-2.08-.12-1.32-1.41-1.81.59-1.11-1.2-.86.94-1.49,0,0-.7-.41-.7-.41.1-.69-1-3.5.52-1.64,1.74-.85,1.29.77,1.65,1.85,1.1-.22.41-2.03,1.52-2.3.91.36,2.49-1.95,1.67.58-.41.4-.38.67-.82,0-1.57.47,1.49,1.37-.07,1.74.88,2.11,2.86,1.09.86.15,0,0,.32-1.5.32-1.5l.55.26c-.04,3.87,2.14-1.17,1.43-2.8.64.04,4.18.62,4.99.6,2.58,1.65-7.08-.38-4.31,2.48,1.11.09,4.65,2.26,5.18.91-.34,0-2.45-.55-2.87-.71.59-3.19,2.97.63,3.76.36.57-1.15-.76-1.12-.16-2.89.93-4.31-8.55,2.14-8.08-7.22,2.21.83,11.67,7.55,9.55,2.78-3.56-2.55-12.48-2.39-9.23-8.29,2.33,1.68,6.37,4.56,8.79,6.83,4.82-2.36-8.38-4.98-6.66-8.59,0,0-1.47.13-1.47.13-2.07,2.65-1.94.92-3.24-.97,1.63-.05,3.82-2.36,4.45-.32.05.1.72.57.84.71,3.42-3.17,6.2,9.18,9.47,6.37-1.51-3.7-11.24-9.04-1.29-9.8,1.61,2.06.6,11.18,4.29,8.83-.19-2.94-2.4-6.44-2.82-9.62.66-.56,4.78-3.75,4.74-1.46,1.45,2.96-2.83,10.43,1.05,11.25,1.64-5.81-2.08-15.63,4.38-5.23-.66.67-4.8,6.38-1.42,6.31,3.29-4.5.75-8.4,8.08-5.45-2.63,1.05-4.93,3.63-6.67,5.85,1.04,6.19,8.44-12.87,10.23-2.77,4.8,1.48-9.3,4.41-8.45,6.03,1.05,5.84,10.16-8.73,11.94-.9-.59,3.73-8,4.98-10.51,2.86-3.67,5.64,5.71,1.84,8.16,1.72-.36,4.74-3.7,4.7-7.38,3.09-3.63,3.39,4.83,2,6.01,2.3-.27,5.7-3.63,2.19-6.37,1.15-3.69,1.86,3.93,3.46,5.3,3.76,2.4,4.15-3.82.68-5.36-.24-6.23.01,4.26,3.5,5.72,3.86,1.64,9.57-6.29-1.7-8.95-1.87-2.06,4.53,12.08,5.85,6.87,10.09-2.35.09-9.12-10.65-9.17-6.16,3.02,3.18,8.49,10.97,12.06,4.59,2.52,7.73-3.98,9.15-10.4,9.08-8.16,2.9-6.87-2.4-13.49-5.44.35-2.26,6.43-7.69,2.81-8.62-2.36,1.22-1.89,8.69-5.45,7.17,0,0-.28,1.33-.28,1.33,0,0-.93-1.09-.93-1.09,2.92-1.51-4.49-2.41-.51-3.31,8.41-5.4,8.7-9.93-.13-1.88ZM55.84,73.15c.22-1.71-.95-7.39-2.61-12.64,0,0-2.16-6.84.13-2.34,2.19,2.77,4.1,7.44,1.99,10.48.64,1.42-.75,3.18-.38,4.34l.87.15ZM49.86,74.48c-3.18-5.69-4.88-8.03-2.72-14.96-3.91,3.63-.65,13.83,2.72,14.96ZM48.9,81.9c-.18,1.16,1.9,4.91-.02,5.92,4.26,1.24,8.24-.47,12.29-1.73.11-.03.18-.52.06-.49-4.71,1.88-4.59-6.31-7.95-7.6-.21,2.91,6.33,9.6.98,9.3-.94-.9-.28-1.46-2.31-.94-1.45-2.41.5-3.52-.12-6.64-2.04,1.06.82,2.96-1.18,3.02-.15-2.14-2.29-4.81-1.75-.85Z"/>
  <path class="cls-2" d="M94.16,74.76c-.74.61-1.75.92-2.25.71l.62-1.45c-1.08.76-.93,1.61-1.89.01-.22,2.07-1.53,3.14-1.54,4.01-.41,2.22-6.48,1.47-6.2-2,0-3.29-2.22-7.12-.45-9.88,2.71-5.36,8.01-.38,8.43,3.43,0,0-.6,2.82-.6,2.82,1.33-.9,2.51-.79,2.59-2.57,1.57.2.64,1.15-.09,2.04.51.08,2.03-.07,2.38.4.22,1.51-1.29.64-2.04.36l1.05,2.12Z"/>
  <path class="cls-2" d="M28.16,33.79c-.91-.69-1.7.36-2.41-1.01-.5-.75-2.22.51-1.4-1.11,1.24.38,1.23.52,1.74-.74,2.99-3.36,6.32-4.2,10.93-3.97.7-2.21-2.69.39-2.63-1.49.81-.72,1.28-1.57,1.46-.04,1.89-1.15,3.51-1.72,1.94.87-.18,1.51,2.2,1.5.65.03,1.39-2.24,3.39,1.03,2.62,2.66,1.5.62,1.81,2.42.69,3.46-2.24,2.7-10.64,4.49-13.58,1.34Z"/>
  <path class="cls-2" d="M20.73,57.89c-3.25,4.44-6.94,5.34-8.2,2.01l.36-.55c-.55-2.2-.61-1.84,0-4.05,1.4-.36,3.1,2.13,3.19-.47,7.57-.93,4.65,3.06,4.65,3.06Z"/>
  <path class="cls-2" d="M70.39,22.15c.81,5.44,1.57,10.16,1.69,10.48l-.56.53c.29-.02,1.1-.04.77.48-4.55,1.07-12-10.01-7.48-14.07,5.28.56,5.58,2.58,5.58,2.58Z"/>
  <path class="cls-2" d="M82.01,63.09c-3.72-2.08-13.41-3.79-7.36-9.61,3.72.42,7.1,6.67,7.36,9.61Z"/>
  <path class="cls-2" d="M30.91,93.19c2.78,3.16-9.9-3.29-4.97-5.48,4.06-3.51,11.67,6.03,4.97,5.48Z"/>
  <path class="cls-2" d="M28.23,56.11c-11.54,4.19,5.29-14.2,3.99-3.53-.67,1.67-2.03,3.42-3.99,3.53Z"/>
  <path class="cls-2" d="M54.28,39.88c-1.33-4.27,7.92-7.88,10.24-5.95-.68.29-7.72,8.94-10.24,5.95Z"/>
  <path class="cls-2" d="M76.36,42.38c-1.03,1.81-4.25,5.92-7.14,9.13l.83-4.14c1.03-2.16-.63-9.13,1.91-8.92l4.4,3.93Z"/>
  <path class="cls-2" d="M66.17,101.42c-2.04-.7-4.61-2.04-5.71-2.98l-2.63,2.4c-.51.32-.81.33-.68-.42-.53-.86.51-1.04,1.17-1.18.24-.2.19-1.04.38-1.37,3.41,1.44,7.87-2.12,11.7-.98,5.53.12-1.47,3.36-3.45,3l-.77,1.52Z"/>
  <path class="cls-2" d="M30.67,60.94c5.25,1.28-4.33,1.86-5.79-.54.11-2.37,5.66-3.05,7.52-3.12,3.37,3.71-.27,3.97-1.83,1.43.02.5-2.08,4.41.1,2.22Z"/>
  <path class="cls-2" d="M86.26,57.18c-.41-1.53-3.68-7.23-3.29-8.75,5.12-6.24,4.81,5.12,3.29,8.75Z"/>
  <path class="cls-2" d="M80.97,50.32c5.17,8.57,1.02,8.09-3.77,1.36-1.25-3.18,2.7-3.23,3.77-1.36Z"/>
  <path class="cls-2" d="M23.4,49.33c2.83-.54,2.91.94.17,3.3l-2.14,1.56c-.4-.27-1.02-.94-1.48-.47-1.5-.2-1.71-2.63.21-2.24.67-1.05-.05-6.23,2.18-4.06-.68,1.78-2.9,4.35-.67,5.82l1.73-3.91Z"/>
  <path class="cls-2" d="M51.13,36.76c.82,1.85-2.53,5.22-3.61,3.01-6.67-5.36-1.36-6.35,3.61-3.01Z"/>
  <path class="cls-2" d="M78.26,43.46c1.18-.06,2.55.57,3.03,1.41h0c-5.21,5.81-4.84-2.75-6.61-6.38,1.31-.18,6.63,4.17,3.82,4.15l-.24.83Z"/>
  <path class="cls-2" d="M46.62,41.31c.8,1.7-3.95,1.39-4.72,2.13-3.09-7.16.79-8.13,4.72-2.13Z"/>
  <path class="cls-2" d="M90.15,89.42c-.45.57-.44-.94-1.98-1.28,1.71-1.14,2.93-.78,3.47-1.93.7-2.66-4.02-5.74-.95-8.01,1.1.89-1.95,1.62.22,2.24,8.31,2.26,1.88,4.66-.75,8.98Z"/>
  <path class="cls-2" d="M78.15,15.32c-6.25,2.39-9.39,6.58-5.9-3.14,1.61.9,4.19,1.41,5.9,3.14Z"/>
  <path class="cls-2" d="M28.42,72.58c1.76,8.32-7.74-3.01-6.62-6.4,2.06,2.46,3.61,4.39,6.62,6.4Z"/>
  <path class="cls-2" d="M71.4,89.6c-5.45-1.31,7.09-6.05,8.64-6.96-2.36,2.59-4.73,6.98-8.64,6.96Z"/>
  <path class="cls-2" d="M84.32,32.6c3.47,9.6-1.9,1.63-6.73.78-3.3-2.96,5.25-.24,6.73-.78Z"/>
  <path class="cls-2" d="M80.77,66.33c-4.21,1.57-9.62,2.66-12.03,2.42l-.31-.56c-.43-2.48,5.31.75,5.13-2.32l7.21.47Z"/>
  <path class="cls-2" d="M40.14,44.56c-4.82,3.41-5.17-4.31-2.44-6.77.95,1.07,2.85,6.04,2.44,6.77Z"/>
  <path class="cls-2" d="M69.27,81.34c1.67-4.62,3.79-2.45,7.39-4.01,6.68-2.35-3.84,5.42-7.39,4.01Z"/>
  <path class="cls-2" d="M33.67,86.58c-2.75.28-2.65-3.87-2.47-5.64,3.34-1.36,6.82,4.65,2.47,5.64Z"/>
  <path class="cls-2" d="M90.7,47.64c.55.18,1.2,2.92,1.45,6.09l-2.67,2.76c.7-2.51-2.08-10.32-.4-10.9.95-.2.77,1.52.93,1.62l.7.43Z"/>
  <path class="cls-2" d="M78.9,75.86c-3.63-.49-8.08-.12-9.88.83l-1.01-1.66c1.67-1.85,7.62-.93,10.16-1.35l.73,2.17Z"/>
  <path class="cls-2" d="M85.99,59.9c2.35,1.65,4.43,3.31,4.61,3.7l-.22.51c-.57,1.87-1.3-2.53-3.93-.72-.9-.18-2.5-.1-3.23.56-.59-2.49,1.77-3.7,3.32-5.03.6,2.41,1.02.15,2.41.56-.4.33-.04,1.5.2,1.98l-3.17-1.56Z"/>
  <path class="cls-2" d="M78.32,35.71c2.5,4.56,3.27,6.94,1.7,5.3l1.5-1.5c-2.26,1.11-4.7-2.12-6.27-3.69l3.07-.11Z"/>
  <path class="cls-2" d="M26.69,11.33c1.01-2.62,6.41-.57,7.9-2.34,7.68-2.61.91,4.83-7.9,2.34Z"/>
  <path class="cls-2" d="M54.99,27.81c.08,1.98-3.1,1.44-5.34,1.31-3.85-1.91,5.94-5.88,5.34-1.31Z"/>
  <path class="cls-2" d="M46.06,95.09c-1.6,1.44-6.38-.15-7.22-1.78,2.39.26,12.33-2.6,7.22,1.78Z"/>
  <path class="cls-2" d="M81.65,64.68c-.37.73-4.3,1.79-8.72,2.37l.32-5.43c1.44-2.1,6.71,3.9,8.24,2.56l.16.5Z"/>
  <path class="cls-2" d="M71.89,84.87c-7.37-.54,5.66-3.75,8.46-5.69-2.05,2.79-5.08,4.61-8.46,5.69Z"/>
  <path class="cls-2" d="M7.54,71.32c-4.25-2.97-2.24-7.11,2.92-5.84-1,1.66-2.56,3.45-2.92,5.84Z"/>
  <path class="cls-2" d="M29.49,80.95c-.07,2.35-1.55,3.18-3.27,1.84l-.39-2.47c-.64-2.56,2.64-1.37,3.62-.43l.04,1.06Z"/>
  <path class="cls-2" d="M34.37,45.38c-4.31,3.62-2.6-6.24-.33-6.32,1.02,1.34.21,4.63.33,6.32Z"/>
  <path class="cls-2" d="M65.05,8.98c-.46,2.65-2.5,3.41-4.53,1.69l-.95-1.29c.1-1.54,3.33-.17,4.08-.26l1.4-.14Z"/>
  <path class="cls-2" d="M92.02,37.64c-.52,1.09-2.32,1.07-3.23,1.21.19-1.41-1.92-2.85-.61-4.41,1.19-1.16,4.59,1.64,3.85,3.2Z"/>
  <path class="cls-2" d="M58.86,96.12c-3.35-1.19-2.9,1.58-5.66-2.28,1.44-1.5,7.8-.98,5.66,2.28Z"/>
  <path class="cls-2" d="M25.48,76.74c-3.6,1.72-6.02-5.48-5.02-7.69,1.2,3.29,3.25,4.86,5.02,7.69Z"/>
  <path class="cls-2" d="M75.14,50.35c-2.14,2.61-5.37,2.47-7.19-.3l4.5.94s3.4-1.82,3.4-1.82l-.7,1.18Z"/>
  <path class="cls-2" d="M41.65,100.63c-6.88,2.23-9.47-10.15-5.09-3.6,1.92,2.2,2.42,2.12,5.09,3.6Z"/>
  <path class="cls-2" d="M35.44,15.19c.06,2.01.69,5.53-1.92,5.3-1.63-.16-.21-7.26,1.92-5.3Z"/>
  <path class="cls-2" d="M23.15,29.12c-1.69.39-2.38-2.96-4.75-.25,0,0,.42-4.59.42-4.59,1.2.35,5.62,3.63,4.33,4.84Z"/>
  <path class="cls-2" d="M13.13,53.14c1.4-4.2-4.17-7.2-.2-10.82-.94,3.93,2.12,8.04,1.34,11.83-.7-.92-2.12.61-1.14-1Z"/>
  <path class="cls-2" d="M67.14,93.04c-1.84,1.38-3.64,3.76-4.42,1.17.26-1.58,6.2-5.09,4.42-1.17Z"/>
  <path class="cls-2" d="M39.49,19.05c-2.85,2.78-2.89-2.16-1.35-3.59,1.69-.9,2.38,2.41,1.35,3.59Z"/>
  <path class="cls-2" d="M77.9,89.58c-5.66.67,1.88-2.87,2.96-5.15.11,1.76-.89,5.17-2.96,5.15Z"/>
  <path class="cls-2" d="M52.58,23.27c-2.26.89-4.61.86-5.22-.07l.39-.63c.87.06,5.82-1.67,4.83.69h0Z"/>
  <path class="cls-2" d="M53.86,97.24c-4.9,3.21-6.43-4.42-2.47-1.97,0,0,2.47,1.97,2.47,1.97Z"/>
  <path class="cls-2" d="M7,31.14c.15,3.85.14,7.75-.02,8.67l-.5.84c-1.87-.27-.8-2.57-.38-3.69l.91-5.82Z"/>
  <path class="cls-2" d="M22.83,23.07c-.92,1.4-3.34-.28-3.57-.63-.56-2.64,6.04-2.33,3.57.63Z"/>
  <path class="cls-2" d="M89.14,87.17c-1.44.17-2.34,2.04-3.23,1.58.64-3.31,4.56-8.23,3.23-1.58Z"/>
  <path class="cls-2" d="M54.1,33.67c-1.36-.17-1.16.93-1.84.72-4.65-2.94,3.63-5.36,1.84-.72Z"/>
  <path class="cls-2" d="M82.58,87.14c-2.48,4.55.15-7.27,3.09-5.48.48-.31-.09-.49-.31-.67-.18-.24.61-.48.92-.43,1.29,2.19-1.76-.18-3.7,6.59Z"/>
  <path class="cls-2" d="M77.79,70.58c.82,1.9-4.52,2.23-5.4,1.81-.37-2.32,4.23-1.49,5.4-1.81Z"/>
  <path class="cls-2" d="M43.11,19.09c1.36.19-2.12,3.78-2.56,4.45-2.01-.1.52-5.6,2.56-4.45Z"/>
  <path class="cls-2" d="M15.49,34.61c-.48-1.31,2.28-1.8,1.36-3.44,7.33-.67,1.81,1.7-1.36,3.44Z"/>
  <path class="cls-2" d="M8.82,62.4c-2.18,2.82-4.53,1.65-3.81-1.6,1.19.53,2.85.3,3.81,1.6Z"/>
  <path class="cls-2" d="M54.56,17.6l-4.04-.43c-3.13-2.8,8.21-.97,4.04.43Z"/>
  <path class="cls-2" d="M96.22,35.45c.81,4.88,1.11,8.03.67,6.99l-1.53-.16-.65-3.55,1.52-3.28Z"/>
  <path class="cls-2" d="M30.15,43.9c-2.64-.92-1.51-5.43.95-4.64,0,0-.95,4.64-.95,4.64Z"/>
  <path class="cls-2" d="M15.8,44.48c-.11,3.07.9,3.47.08,6.35-.36-1.59-3.1-11.09-.08-6.35Z"/>
  <path class="cls-2" d="M17.7,43.42c-1.18-3.75,4.53-7.11,3.51-4.58-1.09,1.09-2.37,2.9-3.51,4.58Z"/>
  <path class="cls-2" d="M59.41,31.89c-1.37,1.9-4.15-.24-2.7-1.89,1.22-.75,3.35.42,2.7,1.89Z"/>
  <path class="cls-2" d="M58.34,21.56c-.92-.76-5.6-.07-6.05-2.67.98-.35,6.78,1.69,6.05,2.67Z"/>
  <path class="cls-2" d="M49.74,34.28l-3.5-1.2c.44-2.96,3.97-1.92,3.5,1.2Z"/>
  <path class="cls-2" d="M83.03,29.39c-.4.52-7.24,1.32-6.84-.33,1.1-.29,6.3-.72,6.84.33Z"/>
  <path class="cls-2" d="M23.77,45.35c-1.87,1.67,1.25-4.34,1.79-4.91,2.51.88-1.3,3.84-1.79,4.91Z"/>
  <path class="cls-2" d="M59.33,24.49c.17.35-3.43-.48-4.27-.28-2.6-3.87,3.36-.94,4.27.28Z"/>
  <path class="cls-2" d="M8.05,41.93c-.11,2.65-.75,4.68-1.42,4.51l-.21-.5c-.42-1.01.71-.25.29-2.42l1.34-1.59Z"/>
  <path class="cls-2" d="M25.46,83.82c-1.76.74-2.33-1.5-2.91-2.63,2.16-2.41,1.99,1.15,2.91,2.63Z"/>
  <path class="cls-2" d="M30.54,15.99c.17.53-.06,2.87-1.13,2.99-1.95-.09-.78-4.92,1.13-2.99Z"/>
  <path class="cls-2" d="M20.53,18.09c-3.96,4.62-.4-3.52,1.91-3.06-.55,1.09-1.14,2.16-1.91,3.06Z"/>
  <path class="cls-2" d="M59.62,28.12c-1.71.06-3.27,0-3.39-2.24,1.44.05,3.94.16,3.39,2.24Z"/>
  <path class="cls-2" d="M94.12,55.04c-.15,1.6-1.17,2.61-2.49,3.4.69-.62.93-8,2.49-3.4Z"/>
  <path class="cls-2" d="M29.65,46.17c-2.34,1.25-3.16-1.64-1.52-2.96.79.86,1.67,1.87,1.52,2.96Z"/>
  <path class="cls-2" d="M44.1,23.91c-1.57-.43.22-3.2,1.21-3.43,1.64.66-.15,2.99-1.21,3.43Z"/>
  <path class="cls-2" d="M20.64,76.26c-.44.07-1.41.18-1.84,0-1.35-4.88-.6-5.26,1.84,0Z"/>
  <path class="cls-2" d="M27.39,21.15c.28.39.69,2.02-.06,2.35-2.08.14-3.05-4.77.06-2.35Z"/>
  <path class="cls-2" d="M72.16,63.66c-.84.03-2.61-.8-1.79-1.84,1.57-1.34,3.77.88,1.79,1.84Z"/>
  <path class="cls-2" d="M18.62,49.34c-1.26,2.56-.91-2.47-1.02-4.06,1.81,1.05,1.54,2.32,1.02,4.06Z"/>
  <path class="cls-2" d="M17.16,38.58l-1.68,2.19c-1.67-1.8-.28-4.97,1.68-2.19Z"/>
  <path class="cls-2" d="M16.07,23.73c-2.39,3.3-2.6,1.99-1.07-.05,1.5-2.75,4.04-2.93,1.07.05Z"/>
  <path class="cls-2" d="M57.49,8.33c-.81-.06-2.83-.24-4.5-.41l-1.3-.43c4.78-.44-.16-1.31,5.75.07l.05.76Z"/>
  <path class="cls-2" d="M9.77,51.87c3.54,6.61-2.1-.34-1.67-3.01.96-1.55,1.34,2.6,1.67,3.01Z"/>
  <path class="cls-2" d="M80.28,90.94c-1.01,1.36-2.23,3-4.06,3.38.71-.41,2.91-5.01,4.06-3.38Z"/>
  <path class="cls-2" d="M44.89,89c2.09,2.42-3.74.22-3.87-.13,0,0,.95-.68.95-.68.51,1.42,1.68-.38,2.92.81Z"/>
  <path class="cls-2" d="M47.7,91.15c-.99-.09-3.71.43-6.05,1.16l1.76-1.74c.94,1,2.32-.46,3.44-.61l.85,1.18Z"/>
  <path class="cls-2" d="M71.36,93.53c-2.76-.18.65-2.44,1.64-2.51.72-.03-.71,1.78-1.64,2.51Z"/>
  <path class="cls-2" d="M75.35,26.45c.35-1.47,2.28-.47,3.5-.98.75,1.44-2.63,2.03-3.5.98Z"/>
  <path class="cls-2" d="M95.04,49.71c-.15.78-.61,1.5-1.63,1.88-.59-1.56.03-4.27,1.63-1.88Z"/>
  <path class="cls-2" d="M72.77,66.11l-3.69.05c-.39-1.83,2.93-1.32,3.69-.05Z"/>
  <path class="cls-2" d="M20.58,35.61c-.52,1.25-2.51,1.15-3.54.65.82-1.02,2.61-1.56,3.54-.65Z"/>
  <path class="cls-2" d="M9.58,34.16c-3.3-.91,2.12-4.71,1.07-2.26-1.36,1.32-.08,1.87-1.07,2.26Z"/>
  <path class="cls-2" d="M88.81,80.2c-.58.99-.67,2.3-.2,2.92l-1.23.49c-.65-.95.26-3.81,1.79-4.04l-.36.63Z"/>
  <path class="cls-2" d="M10.87,41.66c-.59,1.47-1.31.33-2.11-.24-.54-1.85,2.52-1.34,2.11.24Z"/>
  <path class="cls-2" d="M20.09,44.91c-1.77-.13,1.27-4.18,1.99-4.37l-1.99,4.37Z"/>
  <path class="cls-2" d="M49.68,19.05l-2.42,1.66c-.51-1.61.91-3.34,2.42-1.66Z"/>
  <path class="cls-2" d="M16.29,72.91c.74,2.27.73,4.08-.04,4.02l.03-.62c.12-2.36-.67-1.73-.18-3.11l.18-.29Z"/>
  <path class="cls-2" d="M10.72,61.97c-.17,1.93.53,2.04-.95,2.36-.37-1.45.54-6.18.95-2.36Z"/>
  <path class="cls-2" d="M10.93,71.59c-2.14.96-.82-2.78.93-1.97l-.93,1.97Z"/>
  <path class="cls-2" d="M96.39,63.53c-2.75,1.37-1.04-1.21.4-1.67.52.37.26,1.33-.4,1.67Z"/>
  <path class="cls-2" d="M48.23,99.01c-1.43.21-2.53.05-3.97-.25.67-1.98,2.8-.21,3.97.25Z"/>
  <path class="cls-2" d="M62.4,30.91c-.45,1.43-2.95.3-2.1-.88.56-.29,1.79.32,2.1.88Z"/>
  <path class="cls-2" d="M95.59,59.57c-.3.94-1.57,1.59-2.06,1.18.51-.87,2.09-3.62,2.06-1.18Z"/>
  <path class="cls-2" d="M42.42,98.09c-.4-.39-3.41-.89-2.41-1.88.97.18,3.14.29,2.41,1.88Z"/>
  <path class="cls-2" d="M10.74,75.21c-1.89,1.73-1.23-4.58-.11-2.05,0,0,.11,2.05.11,2.05Z"/>
  <path class="cls-2" d="M45.23,17.04c.4,1.11-2.45,1.39-2.77,1.01-.58-1.47,2.03-1.04,2.77-1.01Z"/>
  <path class="cls-2" d="M27.62,95.37c-1.02-.57-.96-2,.23-2.14,1.11.21.56,1.89-.23,2.14Z"/>
  <path class="cls-2" d="M5.86,58.65c-1.23-2.56.13-2.71,1.65-.62,0,0-1.65.62-1.65.62Z"/>
  <path class="cls-2" d="M72.66,24.64c-3.18,1.35-1.81-3.55.15-1.78-2,.6-1.47.69-.15,1.78Z"/>
  <path class="cls-2" d="M41.88,98.99c-.81,1.33-3.39-.8-3.51-1.74l3.51,1.74Z"/>
  <path class="cls-2" d="M97.67,71.18c.93.07-1.06,2.9-1.79,1.47-.06-.75,1.15-1.39,1.79-1.47Z"/>
  <path class="cls-2" d="M74.85,24.02c-1.47-1.18,1.47-1.41,2.5-1.47-.57.76-1.33,1.75-2.5,1.47Z"/>
  <path class="cls-2" d="M44.98,101.46c-2.04-.18-2.58-.69-1.28-1.27.57.16,4.16,1.05,1.28,1.27Z"/>
  <path class="cls-2" d="M23.16,63.93c-.05-1.21-.91-3.9.27-4.92.5,1.55-.13,3.35-.27,4.92Z"/>
  <path class="cls-2" d="M75.25,92.48c-2.32,1.27.63-3.51,1.33-1.32,0,0-1.33,1.32-1.33,1.32Z"/>
  <path class="cls-1" d="M48.9,81.9c-.54-3.96,1.59-1.31,1.75.85,1.99-.06-.86-1.96,1.18-3.02.62,3.12-1.33,4.23.12,6.64,2.04-.52,1.37.05,2.31.94,5.36.3-1.18-6.39-.98-9.3,3.36,1.28,3.24,9.48,7.95,7.6.11-.02.05.46-.06.49-4.05,1.26-8.04,2.97-12.29,1.73,1.91-1.01-.14-4.76.02-5.92Z"/>
  <path class="cls-1" d="M53.05,60.58c1.76,5.21,3.02,10.87,2.79,12.58l-.87-.16c-.63-.15,1-2.62.38-4.34,2.11-3.05.21-7.71-1.98-10.48-2.67-4.58-.31,2.4-.31,2.4Z"/>
  <path class="cls-1" d="M49.86,74.48c-3.37-1.13-6.63-11.32-2.72-14.96-2.16,6.94-.46,9.26,2.72,14.96Z"/>
</svg>