<?xml version="1.0" encoding="UTF-8"?>
<svg id="Layer_1" xmlns="http://www.w3.org/2000/svg" version="1.1" viewBox="0 0 71.91 71.77">
  <!-- Generator: Adobe Illustrator 30.1.0, SVG Export Plug-In . SVG Version: 2.1.1 Build 136)  -->
  <defs>
    <style>
      .st0 {
        fill: #cdb464;
      }
    </style>
  </defs>
  <path class="st0" d="M32.66,32.96c.75-.54,1.09-1.7,1.13-2.59.32-6.75-.85-12.88-2.11-20.23-.17-1.01-.19-2.28-.07-3.83.21-2.55,1.57-4.05,4.08-4.48,4.95-.86,10.02.7,8.88,6.91-.8,4.32-1.3,7.21-1.52,8.66-.34,2.33-.39,4.14-.14,5.43.83,4.37,6.86-1.85,8.26-3.22,2.84-2.78,5.14-4.64,8.6-1.79,2.64,2.17,2.77,5.87.33,8.23-.85.83-1.89,1.56-3.1,2.19-4.14,2.14-6.58,3.44-7.31,3.9-3.51,2.21-8.02,6.06-8.56,10.54-.37,3.08,3.53,1.8,4.87,1.14.6-.3,2.54-1.18,5.83-2.66,1.78-.8,3.5-1.36,5.16-1.69,3.69-.74,5.83,2.49,5.74,5.75-.07,2.96-2.54,4.33-5.09,5.07-2.29.67-5.33,1.4-9.11,2.2-3.59.76-7.33,2.67-8,6.56-.36,2.05.12,4.68.37,7.34.21,2.31-1.35,3.76-3.49,3.76-1.55,0-3.41,0-5.59.01-1.29,0-2.22-.29-2.78-.88-3.19-3.37-6.66-6.92-10.28-8.9-2.07-1.12-4.23-2.11-6.48-2.95-3.61-1.35-3.78-5.61-2.1-8.45,2.24-3.79,5.2-4.5,8.89-2.13,2.34,1.5,4.55,4.05,7.34,6.82,1.08,1.07,2.63.75,3-.88.84-3.62-2.09-8.86-4.32-11.72-3.37-4.36-7.48-8.8-10.48-12.56-1.06-1.33-1.92-2.66-2.57-4.01-2.21-4.58,2.24-8.86,6.35-9.74,1.72-.37,3.13.14,4.21,1.53,3.78,4.8,4.8,11.5,8.6,16.4.36.47,1.01.58,1.45.26Z"/>
</svg>