<?xml version="1.0" encoding="UTF-8"?>
<svg id="Layer_1" data-name="Layer 1" xmlns="http://www.w3.org/2000/svg" viewBox="0 0 69.29 71.77">
  <defs>
    <style>
      .cls-1 {
        fill: #cdb464;
      }
    </style>
  </defs>
  <path class="cls-1" d="M44.55,29.7h-19.8v-4.95h-4.51c-5.17,0-9.79-3.77-10.29-8.91-.58-5.9,4.07-10.89,9.85-10.89h3.84c2.82-3.16,6.77-4.95,11.01-4.95s8.19,1.79,11.01,4.95h3.4c5.17,0,9.79,3.77,10.29,8.91.58,5.9-4.07,10.89-9.85,10.89h-4.95v4.95Z"/>
  <path class="cls-1" d="M69.29,69.29v2.47H0v-2.47h.02c0-.64.22-1.26.68-1.73,9.27-9.45,13.86-19.51,18.72-30.17l.59-1.3c.4-.88,1.28-1.45,2.25-1.45h9.9l-5.26,13.73c-.9,2.47.86,4.26,2.79,4.12l4.04-.29-2.74,9.19c-.44,1.47,1.65,2.31,2.35.94l6.07-11.92c.76-1.5-.26-3.25-1.9-3.37-.58-.04-2.87-.2-3.36-.24l5.55-12.16h7.3c.97,0,1.85.57,2.25,1.45l.59,1.3c4.86,10.66,9.45,20.72,18.72,30.17.46.47.68,1.1.68,1.73h.02Z"/>
</svg>