<?xml version="1.0" encoding="UTF-8"?>
<svg id="Bahan_copy" xmlns="http://www.w3.org/2000/svg" version="1.1" viewBox="0 0 64 64">
  <!-- Generator: Adobe Illustrator 30.1.0, SVG Export Plug-In . SVG Version: 2.1.1 Build 136)  -->
  <defs>
    <style>
      .st0 {
        fill: #cdb464;
        stroke: #d1b256;
        stroke-miterlimit: 10;
      }
    </style>
  </defs>
  <path class="st0" d="M61.21,33.54l-6.65-8.2c-.4-.47-1.17-.64-1.81-.4l-7.24,2.85,2.4-13.62c.21-1.18-.33-2.37-1.45-3.17L32.33.98c-.4-.27-.96-.35-1.46-.2-.14.06-14.54,10.23-14.54,10.23-1.12.79-1.67,1.98-1.46,3.16l2.12,12-5.74-2.26c-.55-.22-1.21-.12-1.63.24-.06.05-6.83,8.35-6.83,8.35-.62.76-.71,1.71-.26,2.54l14.01,25.72c.62,1.13,2.2,1.73,3.7,1.41.01,0,3.08-.67,3.09-.68,1.39-.38,4.12-.57,4.87-1.73h7.11c.15,1,1.04,1.83,2.26,2.1l6.17,1.35c1.5.32,3.07-.28,3.7-1.41l14.01-25.72c.45-.83.36-1.78-.26-2.54ZM51.18,28.06l-2.19,6.3-5.14-3.41,7.33-2.89ZM53.89,28.66l4.43,5.46-6.62.84,2.19-6.3ZM41.74,29.28c-1.02.4-1.72,1.18-1.87,2.08l-4.3,26.17h-2.78V19.15l12.16-4.39-2.51,14.25-.71.28ZM32.8,4.31l11.56,8.2-11.56,4.18V4.31ZM29.98,16.69l-11.56-4.18,11.56-8.2v12.38ZM17.82,14.76l12.16,4.39v38.37h-1.39l-4.47-27.21c-.15-1.68-2.47-2.31-4.07-2.95l-2.23-12.61ZM10.11,27.61l2.19,6.3-6.62-.84,4.43-5.46ZM12.82,27.01l7.33,2.89-5.14,3.41-2.19-6.3ZM19.5,60.01c-.15.03-.3-.03-.37-.14l-13.36-24.52,7.35.93,8.11,23.36-1.73.38ZM25.67,58.66l-1.73.38-8.11-23.35,5.71-3.79,4.35,26.5c.02.12-.08.24-.22.27h0ZM38.1,59.43l4.35-26.49,5.71,3.79-8.11,23.35-1.73-.38c-.15-.03-.25-.15-.23-.27ZM44.87,60.92c-.06.11-.22.17-.37.14l-1.73-.38,8.11-23.36,7.35-.93-13.36,24.52Z"/>
</svg>